/* XPM */
static char *icon[] = {
/* columns rows colors chars-per-pixel */
"32 32 144 2 ",
"   c None",
".  c #000000",
"X  c #040A01",
"o  c #000308",
"O  c #061103",
"+  c #081604",
"@  c #0B1C05",
"#  c #010B1F",
"$  c #0D2305",
"%  c #0F2807",
"&  c #102C07",
"*  c #142505",
"=  c #143409",
"-  c #173C09",
";  c #292501",
":  c #021434",
">  c #011539",
",  c #1D4B0C",
"<  c #19430B",
"1  c #20550E",
"2  c #235B0F",
"3  c #24600F",
"4  c #266510",
"5  c #2F7D14",
"6  c #327D13",
"7  c #256C36",
"8  c #011944",
"9  c #02286D",
"0  c #318014",
"q  c #358B16",
"w  c #379217",
"e  c #399518",
"r  c #3C9D19",
"t  c #3EA31A",
"y  c #389A2A",
"u  c #4F8210",
"i  c #66880E",
"p  c #67850D",
"a  c #76880C",
"s  c #7A970D",
"d  c #40A319",
"f  c #40A91B",
"g  c #44B31D",
"h  c #49BF1E",
"j  c #47BB1E",
"k  c #61A815",
"l  c #46BF31",
"z  c #43BA3F",
"x  c #4AC31F",
"c  c #52C91F",
"v  c #5CCA1E",
"b  c #62CC1D",
"n  c #6CCD1C",
"m  c #73CE1B",
"M  c #7ACF1B",
"N  c #4CC721",
"B  c #4CC820",
"V  c #49C32A",
"C  c #50C925",
"Z  c #5CCD34",
"A  c #62CF3B",
"S  c #65D03F",
"D  c #3FB449",
"F  c #3AAE57",
"G  c #38AB5D",
"H  c #37A962",
"J  c #34A56B",
"K  c #67D042",
"L  c #6DD249",
"P  c #76D554",
"I  c #898C09",
"U  c #868D0A",
"Y  c #9E8E06",
"T  c #A39206",
"R  c #C0B70A",
"E  c #CFB908",
"W  c #83D119",
"Q  c #8AD218",
"!  c #9FD516",
"~  c #91D318",
"^  c #A6D615",
"/  c #AED714",
"(  c #B1D814",
")  c #BAD912",
"_  c #B3DB2C",
"`  c #D2DD0F",
"'  c #DCDF0F",
"]  c #C3DB12",
"[  c #CADC10",
"{  c #D8DE10",
"}  c #EFD609",
"|  c #ECE10D",
" . c #F4E20C",
".. c #FEE40A",
"X. c #FFE723",
"o. c #B0DD41",
"O. c #84D966",
"+. c #94DE7A",
"@. c #032F80",
"#. c #023184",
"$. c #033B9E",
"%. c #033693",
"&. c #033DA5",
"*. c #0443B4",
"=. c #0446BE",
"-. c #0C59B4",
";. c #1A7CBF",
":. c #044CCE",
">. c #044FD5",
",. c #197BC3",
"<. c #0453E1",
"1. c #0558EF",
"2. c #0556EA",
"3. c #055EFF",
"4. c #055AF4",
"5. c #0E6BE3",
"6. c #0C69E9",
"7. c #0961FD",
"8. c #1266FF",
"9. c #1669FF",
"0. c #1C6DFF",
"q. c #2472FF",
"w. c #2A958C",
"e. c #2C9885",
"r. c #248B9F",
"t. c #299391",
"y. c #1C81B6",
"u. c #4285FF",
"i. c #4688FF",
"p. c #5A95FF",
"a. c #659CFF",
"s. c #689EFF",
"d. c #9DE185",
"f. c #A7E491",
"g. c #A9E593",
"h. c #B0E79C",
"j. c #BAEAA9",
"k. c #FFF390",
"l. c #F6F192",
"z. c #C1ECB2",
"x. c #81AEFF",
"c. c #86B1FF",
"v. c #92B9FF",
"b. c #9BBFFF",
/* pixels */
"                                + + X                           ",
"$ . .                       X . . . . . . . .                   ",
"$ . . . .               X . . X 2 3 1 * . . . . . . .           ",
"$ . , % . . . .   . . . . $ 5 N j q B ] } s 2 & . . . . . . .   ",
"@ . 0 B w = . . . . . = w B B B x 0 n .. .v B B x e 4 % . . . . ",
"$ . 0 B B B t < . , t B B B B B N 6 ` ../ c B B N B B B c 0 . . ",
"@ . 6 B B B B B 5 B B B O.g.Z B B a .. .v B B B N B B B B t . . ",
"@ . 0 B B B B B 0 B B Z K L j.B ) Y  .m B B B B B B B B B t . . ",
"+ . 0 N B B B B 5 B B B B Z h./ ..Y M B B B B B B B N B B t . . ",
"O . 0 B B B B B 0 B B B B d._ .. .u c B B B B B v ] ! v B t . . ",
"O . 0 B B B B B 5 B B B O.o.X...W 5 B B B B B M | ......] k . . ",
"X . 0 B B B B B 5 B B O.z.l.k.Q B 5 B B B B ^ ....` [ ....E . . ",
"X . 0 N x B B B 0 N B B b .. .B Q I ( W b ` ....^ B B v ^ R . . ",
"X . 0 B B B B B w g B B W ..[ ^ ..Y ........ .M B B B B B d . . ",
". . 0 N B B B B r t B B ( ..' ....i ^ ' ..` v B B B N N N t . . ",
"X . i v B B B B t r B B { .... .M 5 B B v B B B B V w.,.r.y . . ",
"; . T  ./ b x c g w B m ....| n c 7 V x B B B x G 5.3.3.3.-.. . ",
"X . U ......] M h q ^ ....| v B t.$.5.e.D z H y.7.7.3.3.3.:.. . ",
". . 0 n ) ......' U ....^ B B J 3.&.7.3.3.3.3.3.3.7.3.3.3.:.. . ",
". . 0 B c v ^ | ..Y | M B B V 6.3.$.3.3.3.3.3.3.a.b.0.3.3.:.. . ",
". . 0 B B B B C ~ a C c B B w.3.3.$.3.3.3.3.3.q.0.u.p.3.3.:.. . ",
". . 0 B C d.A B x 6 c x B N 5.3.4.*.4.3.3.3.3.3.9.c.7.3.3.:.. . ",
". . 0 B P j.S B B 0 x B B H 3.3.3.*.2.3.3.3.3.7.3.s.x.3.3.:.. . ",
". . 0 B B f.A B B 0 B B B ;.3.3.3.=.<.3.3.3.3.7.3.8.v.3.3.:.. . ",
". . 0 B B f.S x B 5 B B V 3.3.3.3.:.:.3.3.3.3.i.a.p.9.3.3.:.. . ",
". . 0 B B f.S B B 5 B B G 3.3.3.3.$.#.1.3.3.3.3.3.3.3.3.3.:.. . ",
". . 0 B L g.+.B B 5 B B F 3.3.*.> . . o 8 %.<.3.3.3.3.3.3.:.. . ",
". . 4 x B B B B B 5 B B V *.> . . . . . . . . : @.:.3.3.3.:.. . ",
". . . X = 4 r x N 5 x q & . . .           . . . . . # 9 =.:.. . ",
"  . . . . . . . = - & . . .                     . . . . . o . . ",
"          . . . . . . .                               . . . . . ",
"                  .                                           . "
};
